<?xml version="1.0" encoding="utf-8"?>
<svg version="1.1" xmlns:xlink="http://www.w3.org/1999/xlink" width="12px" height="12px" viewBox="1072 689  12 12" xmlns="http://www.w3.org/2000/svg">
  <path d="M 1078 689  C 1081.36 689  1084 691.64  1084 695  C 1084 698.36  1081.36 701  1078 701  C 1074.64 701  1072 698.36  1072 695  C 1072 691.64  1074.64 689  1078 689  Z " fill-rule="nonzero" fill="#ffffff" stroke="none" />
  <path d="M 1078 689.5  C 1081.08 689.5  1083.5 691.92  1083.5 695  C 1083.5 698.08  1081.08 700.5  1078 700.5  C 1074.92 700.5  1072.5 698.08  1072.5 695  C 1072.5 691.92  1074.92 689.5  1078 689.5  Z " stroke-width="1" stroke="#797979" fill="none" />
  <path d="M 1078 698  C 1076.32 698  1075 696.68  1075 695  C 1075 693.32  1076.32 692  1078 692  C 1079.68 692  1081 693.32  1081 695  C 1081 696.68  1079.68 698  1078 698  " fill-rule="nonzero" fill="#797979" stroke="none" />
</svg>